<?xml version="1.0" encoding="UTF-8"?>
<svg id="Layer_1" data-name="Layer 1" xmlns="http://www.w3.org/2000/svg" version="1.1" viewBox="0 0 1189.48 2031.73">
  <rect x="440.79" y="778.32" width="326.41" height="490.57" display="none" fill="#000" stroke-width="0"/>
  <g>
    <path d="M1126.1,344.58c.64,16-3.71,28.84-6.61,37.37-.38,1.11-.77,2.22-1.11,3.32-.42,1.33-.89,2.65-1.45,3.93-13.69,32.93-33.1,65.09-58.99,98.06.81,2.47,1.5,4.99,1.97,7.63.72,4.01.89,8.15.59,12.2-2.94,38.6-23.5,67.69-40.05,91.11l-.47.68c-.51.68-1.02,1.37-1.53,2.05-2.43,3.11-4.99,6.23-7.55,9.3,1.96,5.24,3.11,10.83,3.41,16.63.17,3.67-.09,7.34-.73,10.96-4.01,22.7-14.28,40.06-24.82,55.45-.09.13-.17.26-.26.39-6.95,9.98-14.46,19.32-22.35,28.06,1.28,3.33,2.26,6.74,2.82,10.24,3.11,20.26-5.42,35.02-9.51,41.54-1.41,3.07-3.12,6.02-5.12,8.79-13.22,18.21-31.01,37.11-49.69,52.98,2.9,20.94-6.66,36.21-10.88,42.39-1.11,2.22-2.39,4.4-3.88,6.44-6.36,8.92-13.78,18.94-22.35,29.01.08,4.09-.26,8.27-1.19,12.32l-.73,3.29c-2.09,9.13-6.74,17.49-13.39,24.06-9.43,9.29-19.41,17.53-29.73,24.78,26.95,15.82,49.39,34.25,67.99,55.92,42.27,45.89,65.55,111.19,64.19,179.86.09,1.28.09,2.56,0,3.89-1.07,26.14-5.63,51.69-13.65,75.96-10.15,33.36-26.66,63.04-43.04,90.13-1.11,1.83-2.34,3.58-3.66,5.29-15.27,22.73-34.81,27.34-48.07,27.34-5.55,0-10.03-.81-12.59-1.45-13.69-3.25-25.29-12.16-31.94-24.57-5.12-9.51-9.6-24.53-3.67-43.34-1.15.09-2.35.17-3.5.17-20,0-38.81-7.84-53.1-22.05-5.34,1.54-11.26,2.6-17.96,2.9,4.05,24.57,9.3,49.22,15.82,74.22.52,1.36.94,2.77,1.28,4.22,2.14,8.06,3.88,14.67,5.29,19.66,2.56,5.63,4.48,10.92,6.19,15.74.72,1.88,1.58,4.31,2.39,6.4,1.92.04,4.52.04,8.01-.08.6-.05,1.24-.05,1.84-.05h.51c17.36-1.36,54-3.37,83.52,19.88,1.79,1.41,3.45,2.94,5.03,4.56,4.39,4.61,13.65,14.16,17.87,30.29.21.89.43,1.75.6,2.6,2.43,11.73,3.15,31.18-9.51,51.65,10.66,1.62,20.77,3.76,31.52,6.06l9.47,2s.04.05.08.05c7.29,1.53,14.25,2.98,22.14,5.2,11.56,3.2,21.54,10.49,28.06,20.6,7.3,11.26,7.98,18.47,11.31,53.19,2,20.69.21,187.25.21,190.87,3.71-.59,7.46-.98,11.3-.98,39.76,0,72.04,32.33,72.04,72.04s-32.28,72.09-72.04,72.09c-18.59,0-35.48-7.17-48.28-18.77l-2.77.98c-7.42,2.73-15.78,5.76-26.23,8.92l-1.84.55c-4.78,1.45-8.91,2.73-15.31,4.27-10.96,2.64-17.79,3.71-27.26,4.9-14.63,1.88-28.23,3.03-41.58,3.03s-26.28-1.15-39.93-3.88h-211.94c-14.29,0-27.51-4.22-38.73-11.43-8.53,6.82-19.28,10.7-30.58,10.7h-95.59c-10.75,0-21.03-3.54-29.39-9.81-10.87,6.61-23.63,10.54-37.28,10.54s-25.46-3.63-36.08-9.81c-8.32,5.63-18.26,8.7-29.09,8.7H95.6c-22.35,0-41.54-15.02-47.3-36-.81-2.26-1.84-5.42-2.56-9.26-2.26-11.51-.26-23.5,5.59-33.69,3.67-6.4,7.85-10.75,10.49-13.27.47-.51.9-1.02,1.41-1.58,2.73-3.41,4.82-8.61,6.99-17.48.9-4.95,1.28-10.03,1.11-14.33-.04-.73-.04-1.46-.04-2.18v-181.15c.08-6.31-1.02-15.14-6.74-21.33-6.95-7.54-11.39-17.06-12.63-27.25-1.53-12.33,1.28-24.27,8.28-35.49,8.62-15.44,24.95-25.21,42.91-25.21h12.71c-6.61-6.86-11.82-15.22-15.19-24.78-.25-.77-.51-1.53-.72-2.34-7.42-24.91-.17-51.57,18.89-69.49,1.33-1.23,2.69-2.38,4.1-3.45,12.97-9.77,26.96-14.63,40.61-16.76,15.05-14.89,31.6-19.45,47.3-22.14,1.28-.21,2.56-.38,3.84-.51,23.67-2.13,42.44,4.9,56.13,10.02,1.28.47,2.73,1.03,4.22,1.58,4.74-7.89,9.43-15.48,14.03-22.95l5.89-9.64c.3-.51.6-1.02.9-1.53,16.46-27,33.73-56.22,50.28-92.69-8.74-3.75-16.33-10.06-21.66-18.34-9.05-13.95-10.41-31.52-3.67-46.66,4.56-10.15,8.74-21.41,12.5-33.4,5.58-18.98,9.89-40.09,12.19-58.86-37.96-16.51-95.28-47.56-137.77-97.85-2-1.83-3.88-3.88-5.58-6.1-10.5-13.69-21.16-30.84-28.07-45.12-13.52-24.96-22.52-53.24-26.79-84.07,0-.05,0-.13-.04-.17l-.08-.73c0-.21-.05-.38-.05-.55-1.62-12.25-2.47-24.91-2.47-37.67,0-28.96,4.31-58.35,12.45-84.96,4.74-15.36,10.84-30.46,17.79-43.89,6.95-16.72,16.29-33.02,27.09-47.39,17.27-25.8,37.23-47.9,58.47-67.95-25.97-.29-50.5-13.99-64.79-36.81-1.32-2.13-2.47-4.35-3.45-6.69-5.8-13.52-7.76-28.67-5.93-43.47-.94-.64-1.88-1.28-2.77-1.96-22.01-16.59-31.31-43.21-23.59-67.82,7.29-23.29,30.5-37.57,54.38-33.82,1.11-.6,2.26-1.2,3.29-1.75,4.35-2.3,9.42-4.95,15.14-7.42-.3-.98-.51-1.96-.73-2.94-4.69-21.93,4.18-38.65,7.98-45.81l.51-.94c1.15-2.77,2.52-5.38,4.14-7.89,8.44-12.97,19.02-22.44,30.11-29.56-.34-8.96,1.79-18.04,6.49-26.19,9.38-16.42,27.34-25.89,46.1-24.53.98-.21,2.35-.55,3.46-.81,2.13-.51,4.22-1.02,6.35-1.49,14.51-3.11,29.14.55,40.27,9.13,30.28-22.1,68.8-17.83,91.49-15.31,1.96.21,3.92.42,5.8.59,1.32.13,2.64.34,3.97.56,20.56,3.84,39.15,9.72,57.11,15.39,4.44,1.41,8.91,2.86,13.39,4.23.3.08.6.17.9.3l4.52,1.49c25.12,8.23,48.92,16.08,73.19,19.15,5.46-6.87,11.78-11.13,17.11-13.82,13.01-6.44,28.36-6.95,42.14-1.45,3.33,1.32,6.52,3.03,9.51,5.03,7.93,5.46,24.14,19.84,24.4,46.75.25-.3.47-.6.72-.85.26-.34.56-.68.81-1.03,41.85-49.35,66.88-92.38,78.91-135.38.09-.34.21-.68.3-1.02,2.64-8.7,1.07-21.45-3.41-27.85-2.31-3.24-4.18-6.78-5.59-10.5-5.46-14.11-4.65-29.85,2.26-43.16,6.91-13.35,19.37-23.12,34.08-26.79,1.88-.47,3.75-.85,5.67-1.06,27.56-3.54,47.52,10.79,57.07,17.66,1.16.81,2.26,1.66,3.37,2.38,16.42,10.58,28.97,25.34,37.2,43.13,1.92.47,3.84,1.02,5.71,1.74,6.49,2.44,12.41,6.23,17.32,11.09,3.11,3.12,5.76,6.27,8.06,9.39,1.75-5.25,3.5-10.54,5.12-15.87,1.66-6.52,3.5-12.67,5.29-18.64,2.86-9.59,5.59-18.64,6.74-26.53.6-5.29,1.41-10.24,2.13-14.59,1.19-7.12,2.13-12.71,1.79-17.44-.42-6.36.34-12.71,2.35-18.77,7.46-24.1,24.86-32.8,34.59-35.87,5.93-1.88,12.2-2.6,18.43-2.09,20.3,1.54,32.8,13.31,36.89,17.19l.34.34c1.71,1.49,3.07,2.9,4.57,4.61,23.71,27.68,36.68,62.31,37.02,97.42,5.33,4.13,9.94,9.3,13.35,15.35,7.55,13.18,9.26,26.23,10.28,34.08.17,1.28.3,2.6.55,3.84.26,1.41.52,2.9.69,4.35,4.18,36.73-3.12,72.51-20.61,101.43,1.03,2.69,1.8,5.46,2.35,8.36.51,2.43.77,4.95.85,7.42Z" fill="#fff" stroke-width="0"/>
    <g>
      <g>
        <path d="M893.25,1612.79c7.53,1.59,13.01,2.77,19.19,4.48,1.2,1.85,6.44,60.34,6.44,63.24-1.7,1.17-3.27,2.36-5.25,3.02-3.29-2.63-5.61-6.04-9.46-9.6-20.15-18.55-35.07-27.77-61.93-33.12-28.6-5.71-48.4-4.7-74.26,8.81-11.57,6.04-17.72,10.63-26.82,19.98-4.11,4.22-6.24,6.83-9.72,11.57-4.57,6.24-6.76,10.06-10.26,16.96-12.31,24.32-14.26,41.23-13.92,68.5.07,6.51.23,10.22,1.04,16.69,1.2,9.53,2.5,14.86,5.26,24.06,2.72,9.01,4.53,14.05,8.67,22.49,3.57,7.21,5.91,11.15,10.51,17.75,6.08,8.66,9.73,13.6,17.75,20.5,11.9,10.26,20.49,14.41,35.5,19.07,9.7,3.01,15.5,3.83,25.63,4.6,10.23.79,16.12.59,26.28-.65,20.44-2.48,32.61-5.64,50.22-16.31,9.63-5.81,14.55-10.05,22.63-17.88,2.1-2.05,3.29-4.07,5.25-5.38,1.85.65,3.16,2.23,4.48,3.42-1.06,1.31-5.92,56-6.19,56.93-8.81,3.16-17.73,6.61-29.32,10.11-5.6,1.7-8.76,2.7-14.46,4.08-8.46,2.03-13.32,2.85-21.94,3.94-38.59,4.88-63.15,3.96-99.11-10.79-16.54-6.76-25.73-11.64-39.83-22.61-14.9-11.59-22.82-19.48-33.24-35.23-6.06-9.14-8.88-14.76-13.15-24.85-6.57-15.52-9.94-24.88-11.44-41.67-.22-2.47-.27-3.86-.38-6.32-1.02-19.25-2.33-30.44,1.04-49.41,1.42-8.02,2.6-12.48,5-20.27,6.42-20.84,11.42-32.84,24.45-50.33,5.18-6.98,8.57-10.58,14.59-16.84,2.21-2.3,3.45-3.59,5.78-5.79,5.25-4.93,8.42-7.55,14.32-11.69,3.25-2.28,5.13-3.5,8.55-5.52,3.02-1.79,4.76-2.72,7.88-4.34,30-15.57,50.36-19.24,84.12-20.9,29.87-1.47,46.85,3.19,76.12,9.33h0Z" fill="#e31b23" stroke-width="0"/>
        <path d="M199.45,1607.53c1.58,1.71,2.37,4.08,3.68,6.04,0,.27-.53.67-.79.92-.79.27-1.18.65-1.83,1.19-10.39,7.09-17.76,18.92-20.65,31.03-1.71,5.9-3.55,11.94-3.55,17.74v224.66c20.91.13,41.81-.91,60.35-8.27,17.62-6.19,33.92-14.59,48.51-27.87.66,0,.54-.79,1.19-.92l.52-.52,3.15,2.63c-.13,1.04,1.19.9,1.58,1.83.4.92-.52,1.59-.66,2.49-2.37,5.92-4.6,11.85-6.44,17.88-5.91,16.31-11.3,32.74-17.22,49.18-.89,2.07-.89,2.1-2.76,2.1H95.59c-.26-1.98-1.31-3.42-1.71-5.52,1.06-1.85,2.79-2.79,4.43-4.7.26-.12.7-1.09,1.09-1.36,10.38-11.71,15.25-25.5,18.8-40.36,1.71-8.81,2.5-18.13,2.11-26.82v-180.5c.26-19.99-5.67-39.97-19.73-55.22-.26-2.1,1.71-3.81,2.5-5.66h96.36Z" fill="#e31b23" stroke-width="0"/>
        <path d="M570.97,1607.8c.52,4.59.12,9.06.91,13.67,1.57,13.54,3.03,28.4,4.73,41.8-.65,1.32,1.06,2.77-.52,3.67-1.71.67-3.42,1.84-4.73,2.77-.66-.52-2.1.52-1.71-1.06-5.25-5.77-11.26-9.01-19.58-12.75-3.98-1.78-6.36-2.48-10.52-3.81-5.65-1.8-8.92-2.58-14.72-3.81-10.21-2.18-16.14-2.6-26.55-3.56-9.25-.85-19.33-.65-23.8-1.31-.78,0-1.31.9-2.1.77-.39,12.5-.13,98.61-.13,98.61,4.2-.27,7.95.15,13.01,0,10.09-.32,15.91-.19,25.78-2.37,9-2,14.25-3.32,22.34-7.75,7.88-4.33,13.94-8.15,18.14-14.21,1.05.38,4.6,3.16,4.98,4.21-.12,11.44,0,55.69,0,75.58,0,.81-6.69,3.29-6.69,3.29-.14-.9-1.26-1.54-2.11-2.48-5.19-5.69-9.47-7.66-16.43-10.92-2.05-.96-3.24-1.49-5.39-2.23-2.16-.75-3.44-1-5.66-1.57-17.83-4.67-30.89-6.06-46.93-5.54v106.63c0,4.6,3.44,13.4,8.02,20.77,4.13,6.64,8.28,10.65,13.28,14.99-.92,2.1-1.44,4.59-2.63,6.84h-95.58c-1.18-1.85-1.44-4.22-2.37-5.92.92-1.98,3.55-3.02,4.47-5,2.24-2.23,3.95-4.87,6.05-7.22,9.6-15,13.54-32.48,14.07-51.28-.26-.92.12-177.21,0-190.88-.8-14.34-3.82-27.75-10.53-39.84-3.55-5.65-8.14-11.05-13.79-14.47.78-2.1,2.23-3.81,3.41-5.64h173.27Z" fill="#e31b23" stroke-width="0"/>
        <path d="M538.31,1905.75c0-12.7,10.3-22.99,23.01-22.99s22.98,10.3,22.98,22.99-10.29,23-22.98,23-23.01-10.3-23.01-23h0Z" fill="#e31b23" stroke-width="0"/>
        <path d="M306.72,1905.75c0-12.7,10.3-22.99,22.99-22.99s23.01,10.3,23.01,22.99-10.3,23-23.01,23-22.99-10.3-22.99-23h0Z" fill="#e31b23" stroke-width="0"/>
        <path d="M953.45,1905.75c0-12.7,10.3-22.99,23-22.99s22.99,10.3,22.99,22.99-10.3,23-22.99,23-23-10.3-23-23h0Z" fill="#e31b23" stroke-width="0"/>
        <path d="M794.54,1244.59c-7.16,0-13.57,2.58-18.44,7.52-5.17,5.25-8.04,12.04-8.04,19.05s2.72,13.5,7.75,18.58c5.08,5.17,11.66,7.99,18.74,7.99s13.65-2.82,18.89-7.9c5.01-4.88,7.74-11.37,7.74-18.67s-2.8-13.74-7.66-18.69c-5.1-5.17-11.73-7.88-18.96-7.88h0ZM817.63,1271.38c0,6.12-2.37,11.81-6.71,16.02-4.58,4.43-10.26,6.78-16.53,6.78-5.9,0-11.72-2.43-16.09-6.86-4.34-4.43-6.8-10.11-6.8-16.15s2.52-11.96,7.01-16.54c4.21-4.28,9.9-6.58,16.1-6.58s12.02,2.37,16.44,6.88c4.29,4.28,6.57,10.03,6.57,16.46h0ZM795.28,1255.58h-11.36v30.11h5.67v-12.83h5.62l6.11,12.83h6.34l-6.71-13.72c4.36-.89,6.86-3.84,6.86-8.12,0-5.47-4.13-8.27-12.54-8.27h0ZM794.26,1259.27c5.3,0,7.75,1.47,7.75,5.17s-2.45,4.8-7.61,4.8h-4.8v-9.96h4.67Z" fill="#e31b23" fill-rule="evenodd" stroke-width="0"/>
      </g>
      <path d="M533.86,1279.2c-11.84-17.8-20.06-37.81-25.44-58.74h.17c-3.91-16.92-7.58-39.79-8.05-57.46-7.43-2.2-15.71-2.5-23.15-4.41-28.36-6.61-55.64-17.92-81.23-30.29-1.08,28.72-7.57,63.04-15.96,91.4-4.14,13.29-8.96,26.4-14.64,39.12,24.4,0,44.35-16.49,61.42-30.58-6.56,27.31-16.01,48.49-28.63,78.52-19.37,45.94-39.59,80.73-60.65,115.28h.05c-7.01,11.46-14.17,22.96-21.47,35.11-4.93,8.51-11.06,18.7-21.2,23.43-28.38,7.68-48.47-15.18-76.01-12.68-13.08,2.23-17.33,4.7-21.76,9.34-2.48,3.86-2.2,8.54-.57,12.67-15.44-1.36-32.25-1.36-44.32,7.73-5.24,4.93-7.71,12.38-5.5,19.83,1.64,4.67,4.68,8.71,10.18,10.72,6.58-12.65,20.08-18.45,33.56-21.77,5.78-.8,11.9-1.93,17.41.3,1.34.84.27,2.49-.86,3.31-5.47,2.75-11.51,6.04-15.94,11-4.43,5.75-8.28,12.93-6.07,20.38,4,9.56,13.75,13.22,23.15,12.15.8-1.11-.27-2.23-.27-3.34-1.12-10.43,9.33-15.99,17.31-20.34,26.43-9.13,56.48-9.13,85.38-9.93,23.97-1.39,48.21.28,72.18,1.96,14.02,1.65,28.11,4.09,38.81,12.87,2.52,2.52,3.04,6.94,1.41,9.95,3.56,1.11,6.86-1.09,9.87-2.78.6-.52.91-.67,2.23-1.88,8.29-6.61,11.03-15.7,11.03-25.36-.3-9.36-9.13-15.72-16.57-18.45-1.61-.67-2.1-.81-3.84-1.36-18.16-5.52-38.28-3.29-57.82-3.05-5.51-.8-12.68.29-15.13-5.77-1.12-3.56.54-7.7,2.18-10.72,12.25-17.75,24.99-35.24,37.76-52.7h.24c21.54-29.4,44.17-60.34,64.19-90.26,15.65-23.38,25.85-52.31,26.69-79.84,11.03,10.99,24.23,20.08,38.56,25.87,3.56.82,7.98,1.95,11.3.82Z" fill="#e31b23" stroke-width="0"/>
      <path d="M905.58,1215.22c1.69-53.62-14.96-109.6-51.78-149.15-21.54-25.36-47.41-42.86-75.28-56.62h-.52c-39.65-19.16-84.95-32.35-125.21-48.86-7.99-2.78-14.88-8.28-23.13-9.67-1.07.84-1.37,2.2-.84,3.56,22.05,20.1,48.19,39.37,70.96,56.81,33.97,26.24,67.35,54.38,96.16,97.96,19.22,29.07,30.58,45.93,42.13,78.75,3.22,9.12,6.47,19.81,8.87,28.55,13.28,49.5,13.08,93.06-.59,139.19,0,4.16-3.59,6.91-1.38,11.04,5.79,1.37,7.99-5.52,11.02-8.81,15.15-25.08,29.74-51.24,38.26-79.58,6.76-20.33,10.55-41.7,11.42-63.18h-.1Z" fill="#e31b23" stroke-width="0"/>
      <path d="M855.99,841.58c1.07,5.53-4.39,9.37-6.04,14.05-8.84,12.4-18.23,24.78-28.95,35.81-22.57,3.84-45.7,3-69.11,1.65-9.33-.56-18.15-2.5-27.01-4.13-.77-.84-.24-1.92,0-2.73,46.85-5.81,88.67-23.46,128.64-46.04.81.31,2.2.31,2.47,1.4Z" fill="#e31b23" stroke-width="0"/>
      <path d="M920.47,739.42c-.86-1.12-1.98-3.01-3.62-2.78-8.24,3.6-14.88,10.76-22.29,15.44-34.21,22.09-72.96,40.36-111.59,52.26h.08c-15.98,4.85-32.31,8.76-49.07,11.64l-.23,3.01c2.72,25.36-20.12,44.62-40.2,55.11v1.62l3.59.57c16.5-1.41,32.45-5.51,47.89-9.09,41.56-13.8,82.08-31.68,117.03-60.59.7-.55,1.45-1.11,2.2-1.69h0c.15-.11.3-.23.47-.37.38-.28.79-.58,1.16-.9h-.04c17.46-13.75,35.6-32,48.83-50.22,1.34-4.69,6.61-8.8,5.81-14.03Z" fill="#e31b23" stroke-width="0"/>
      <polyline points="693.66 1421.02 693.52 1421.02 693.66 1421.02 693.66 1421.02" fill="#e31b23" fill-rule="evenodd" stroke-width="0"/>
      <path d="M960.9,625.38c-12.9,8.54-20.9,19.59-34.12,27.84-16.24,12.65-32.79,23.66-49.88,34.41-37.46,21.48-75.96,40.49-116.76,53.96,1.38,20.41-5.78,40.29-22.05,53.74.27,1.68-2.45,1.09-2.45,2.5,0,.52,0,1.35.52,1.91,34.46-6.33,66.68-20.37,98.34-36.66,42.7-25.55,84.56-55.6,113.74-97.45,7.71-11.3,14.57-22.46,17.05-36.4-.15-3.03-1.92-4.1-4.41-3.84Z" fill="#e31b23" stroke-width="0"/>
      <line x1="195.92" y1="907.42" x2="195.83" y2="906.69" fill="#e31b23" stroke-width="0"/>
      <path d="M1004.98,501.19c-33.5,36.13-70.5,68.3-109.92,96.68h0c-39.85,28.74-82.21,53.56-125.83,74.62,4.65,14.86,2.17,31.39-6.06,44.88-1.95,3.32-5.52,5.82-6.35,9.37.83,1.66,2.51.27,3.85.27,70.47-30.68,140.49-70.93,195.57-129.14h0c8.26-8.69,16.17-17.78,23.65-27.28,14.61-20.67,29.76-41.85,31.7-67.23-.57-3.25-4.44-3.25-6.62-2.17Z" fill="#e31b23" stroke-width="0"/>
      <path d="M1068.86,345.02c-79,104-186.17,187.96-295.01,252.85h0c-1.55.93-3.09,1.83-4.61,2.74.53,3.04,2.17,6.05,3.54,9.09,4.98,14.33,2.24,31.14-6.59,42.97-.57,1.09-.26,2.17.54,2.72,31.7-17.73,62.99-36.8,93.25-57.48h.02c56.08-38.29,108.73-82.21,153.8-133.89,23.98-29.46,43.77-59.78,57.85-93.65,2.46-7.71,5.79-15.42,5.47-23.93-.8-4.17-6.04-4.42-8.24-1.42Z" fill="#e31b23" stroke-width="0"/>
      <path d="M1094.77,232.95c-1.65-7.97-1.4-16.82-5.5-23.7-.82-1.66-3.59-1.66-4.7-.29-4.95,12.14-9.08,24.52-14.07,36.36-23.12,47.64-48.44,95.3-82.59,137.17-24.78,34.7-57.03,63.6-84.59,95.27-.23,1.08-.8,3.01,0,4.15,1.41,1.66,3.87,1.09,5.29,1.09l13.46-10.75c58.14-49.56,113.73-101.61,156.97-165.79,13.8-20.92,18.72-47.39,15.74-73.52Z" fill="#e31b23" stroke-width="0"/>
      <path d="M928.5,236.16c20.39,33.34,8.25,77.95-10.49,108.52-40.71,74.91-103.56,133.84-170.74,183.96-19.26,13.22-38.26,26.44-57.25,40.21-24.51,16.82-46.78,33.88-69.11,52.88-2.47.55-3.86,1.09-6.06.55-1.4-.81-1.93-1.92-2.74-2.73.54-7.73,7.7-11.86,12.11-17.64,75.96-75.73,170.4-132.22,233.19-221.44,29.17-39.64,52.61-84.8,58.98-134.42,0-6.29-.87-12.37-.87-18.66.54-1.68,3.02-2.78,5.27-1.94,3.05,3.03,5.52,6.86,7.71,10.72Z" fill="#e31b23" stroke-width="0"/>
      <path d="M1044.36,104.27c-2.5-2.2-4.63-4.9-8.27-5.18-1.81.57-2.15,2.77-2.72,4.42,1.07,15.42-2.78,28.37-4.16,41.59-2.48,17.85-9.09,34.96-13.49,52.3-22.59,74.1-58.12,142.09-107.68,205.23-60.06,80.77-141.9,138.74-224.26,195.26-12.71,8.72-25.49,17.35-38.13,26.15-22.6,17.59-46.28,34.92-60.31,60.59-9.37,17.31-16.77,37.13-23.69,55.58-6.72,22.01-16.8,45.03-31.74,63.47-12.59,15.51-28.59,27.84-48.93,33.79-4.16-.28-10.51,2.97-13.19-1.63-.9-2.78.54-5.03,2.47-6.63,13.15-5.58,23.73-14.61,32.01-25.53,7.26-9.61,12.87-20.66,16.73-32.02,13.5-40.24,22.87-82.41,43.78-119.54,10.34-19.75,23.03-37.36,37.31-53.75h.04c33.59-38.65,75.86-70.67,114.59-104.57,10.19-7.24,19.79-17.1,29.78-24.83,46.82-41.84,91.08-89.48,122.79-143.23,12.09-22.01,22.59-45.16,25.61-70.47,5.2-29.52.62-63.3-24.23-79.3-8.61-5.5-17.08-14.09-27.8-12.72-2.23.56-3.35,2.5-2.5,4.71,13.47,19.23,17.04,47.69,10.2,70.24-15.98,57.22-49.56,107.67-88.72,153.89-50.65,63.1-117.48,110.19-176.72,165.57-7.71,8.23-17.37,15.62-23.41,25.08-4.46,4.63-8.86,10.06-12.82,15.14h-.13c-16.22,21.37-27.57,45.66-36.67,69.92-11,33.33-18.13,68.04-27.19,101.92-1.38,8.21-6.11,14.87-8.87,22.3-2.92,4.29-6.49,9.57-11.36,11.66-1.91.92-4.17,1.2-6.5.68-.57-.19-1.07-.4-1.56-.68-7.3-3.73-11.49-11.94-13-19.36-14.88-66.41,16.74-125.64,57.48-174.08,3.47-4.13,6.94-8.28,10.53-12.34,12.16-13.93,24.97-27.86,37.22-42.16,12.2-14.3,23.71-29,33.17-44.36,14.09-23.38,19.01-57.06,3.37-80.41-4.69-10.79-14.83-18.49-24.75-23.15-.89-1.06-.89-2.5,0-3.56,8.79-2.21,16.78,1.93,25.05,2.2,19.79,2.46,41.58-.56,59.16-7.72,11.56-5.77,24.5-14.37,27.86-27.57.78-4.65,3.3-11.57-1.93-15.15-4.14-1.65-3.08,3.86-5,5.52-9.08,9.63-23.16,13.5-36.57,13.5-32.79-3.32-62.52-13.5-92.5-23.35-21.79-6.69-42.73-14.13-65.04-18.25-23.69-2.41-55.94-8.22-71.57,14.08-3.34,5.5-1.93,11.58.78,17.08-13.22,1.35-26.94.79-40.73,2.23-3.36-9.94-6.37-19.61-10.78-28.66-7.65,1.64-15.14,4.35-23.67,3.28,6.54,8.52,11.87,17.93,13.51,28.36-19.03,5.83-40.22,12.35-51.5,29.72-2.23,5.79-7.17,11.31-5.81,17.68,18.47-8.03,37.72-14.3,59.23-15.45l1.07.88c0,10.41-2.71,21.41-6.05,31.38-8.81,2.48-17.6,1.11-26.14,1.9.53,1.35-1.38,2.8-.79,4.41,1.32,9.94,13.5,9.11,18.67,13.52-5.17,10.43-11.83,21.42-20.11,29.99-7.96-7.4-18.73-13.76-29.71-13.2-21.26-1.95-37.15,14.31-56.15,19.59-4.46,1.61-9.41-1.45-13.25-2.23-1.63,5.2,1.93,10.72,6.29,14,3.62,1.35,6.64,5.02,10.51,4.15,5.21,2.8,12.65,2.47,19.28,2.2,14.59-1.33,25.31-11.86,38.8-16.51,5.81-.84,11.85-4.69,17.64-1.11-1.07,3.84-5.8,6.05-8.75,9.03-18.5,13.52-41.41,19.88-53.47,41.1-3.09,8.22-3.29,18.17.26,26.48,6,9.62,16.54,15.11,27.82,13.48,0-1.45-.86-2.54-1.36-3.64-4.68-15.18,11.61-25.03,20.97-33.85,6.54-7.46,11.24-18.46,6.27-28.43,6.38-5.17,12.42-10.1,19.3-15.14,3.85,9.97,9.06,19.34,17.62,27.31,9.96,8.55,25.1,12.17,37.46,6.39,14.83-6.67,29.7-22.09,28.66-39.48-7.15,7.51-16.52,12.71-27.05,14.64-4.4-5.28-8.2-8.26-13.46-12.92-9.12-6.91-21.23-9.13-32.73-6.91,9.84-11.55,17.3-23.94,24.71-36.88,17.34-1.63,34.69-5.27,52.06-9.34,21.73-4.43,47.95-3.38,61.96,15.38,2.8,3.05,5,7.48,7.15,12.14,9.34,26.7-7.15,51.23-25,70.21-20.45,20.7-44.34,40.2-67.22,58.53l1.24-.86c-48.53,38.67-98.73,75.76-133.74,128.57-8.79,11.49-16.77,25.28-22.56,39.64-6.14,11.57-11.38,24.51-15.37,37.52-6.81,22.26-10.31,46.52-10.31,70.63,0,10.88.71,21.69,2.16,32.26v.13c3.35,24.23,10.46,47.69,21.87,68.43,5.78,12.19,15.08,26.87,23.33,37.64l-2.06-3.32c34.59,44.82,88.13,77.33,137.91,97.1,56.44,23.35,115.41,38.78,176.57,46.21l1.04,1.17c7.36,18.58,12.51,40.59,14.01,61.27h-.06c1.19,19.87-.84,39.87-7.1,58.76-.8,2.2-2.7,4.73-1.95,7.43,9.37-3.31,18.74-9.86,25.65-16.8,5.24-3.56,7.73-9.04,12.08-13.49,1.14-.22,1.69.29,2.24,1.12,7.93,57.33,21.18,113.25,41.69,166.49h-.05c.3.67.53,1.36.85,2.01,0,.14.09.22.09.29,4.7,11.94,10.44,25.51,15.77,36.93,3.06,9.65,12.41,17.11,9.93,27.56-1.94,2.43-4.95,5.74-8.49,5.51-4.17-.29-8.86-.54-12.43-1.71-11.27-2.97-22.29-8.2-33.32-11.29-16.5-2.68-40.2-12.04-54.01,3.09-2.12,4.12-2.12,9.38-.22,13.77-4.96,1.07-10.46-.27-15.96.2-11.88-.2-22.02,6.98-27.32,17.11-1.63,5-1.63,12.41,1.42,16.79,1.95,3.36,5.52,5.29,9.11,5.56,1.06-.84,1.38-2.2,1.61-3.84,7.15-13.79,23.46-16,37.99-16.27,1.09.27,2.53,1.42,1.97,2.77-4.13,3.55-9.36,5.5-12.68,9.95-4.11,5.68-6.35,12.65-2.73,19.74,3.05,5.82,8.76,10.25,15.98,10.25,2.57,0,2.45,1.07,3.56,0-.82-5.29,2.45-10.79,6.58-14.85,17.68-13.8,39.92-16.59,62.49-18.82,41.84-3.59,90.15-4.4,130.79,4.17,9.21,1.9,8.86,2.42,13.52,4.7,6.06,2.73,12.06,7.71,14.29,14.3,3.34.57,6.37-1.39,8.83-3.02,9.13-7.11,17.6-16.84,15.17-28.65-.87-3.32-2.43-5.28-5.81-8.79-14.1-11.1-34.13-10.77-51.22-9.38h-2.48c-14.01.52-28.38.22-39.66-7.5-14.87-11.48-17.07-30.8-24.8-46.21-2.15-7.34-4.79-17.36-6.7-24.7l.52,2.64c-13.92-51.88-23.29-104.7-27.35-159.13,0-1.14,0-2.78,1.34-2.23,13.21,9.93,27.85,15.95,44.03,18.43,8.03,1.14,17.71,1.39,22.83-4.96-7.38-6.91-16.97-12.88-24.13-20.09-10.46-10.94-19.03-23.28-26.05-36.45h.18c-18.68-36.37-25.1-80.68-17.15-121.61-17.06-13.81-31.9-27.02-47.57-41.29-14.44-14.14-29.43-29.51-42.77-44.92h-.19c-26.11-30.18-47.91-63.41-55.97-102.05-.65-3.43-1.42-7.78-1.86-10.85.26-5.81-2.5-13.49,2.2-18.46.77-.28,2.42-.56,3,.29,3.16,9.01,11.29,28.89,11.29,28.89,4.92,11.29,10.41,22.34,16.5,33.05,13.77,25.59,34.55,49.01,55.6,69.82h-.15c34.42,33.74,73.36,64.33,101.27,102.05,10.71,14.02,18.43,29.99,25.26,46.26,5.81,18.13,9.8,39.03,10.61,58.77.03,2.05.03,4.18.03,6.24,0,6.98-.32,13.82-1.29,20.63,1.19,1.37,2.25,2.75,4.17,2.19,4.66-3.02,5.23-8.22,7.15-12.93,1.51-5.37,2.65-10.73,3.62-16.14h.25c9.41-54.9-6.35-111.14-38-155.42-15.16-19.25-32.43-35.93-50.29-51.66h-.22c-37.15-32.43-78.16-62.66-106.28-102.58-3.89-5.68-8.5-12.8-11.74-18.45-1.6-4.13-5.8-9.63-1.08-13.79,1.08-.3,2.73-.48,3.86.28l14.27,15.43c5.94,5.68,20.52,18.17,20.52,18.17,40.2,33.06,87.15,55.64,142.26,53.98,32.73-4.4,62.19-21.2,85.95-44.62l.75-3.29c-.52-1.37-1.64-2.23-2.73-2.49-26.01,1.07-51.12-.88-75.36-4.9l.79-.04c-19.5-3.52-43.26-9.11-61.72-15.15-16.79-6.59-33.57-12.39-48.71-22.57-.28-1.37-.28-3.31.47-4.47,32.04-1.05,66.97-12.06,84.89-41.56-.28-1.92,1.41-4.94-1.41-5.79-25.28,1.96-52.87,2.24-77.35-2.98-1.92,0-2.43-1.65-2.43-3.27.22-1.16,1.6-1.66,2.43-2.49,12.48-.75,24.6-2.38,36.25-5.16,19.79-4.81,38.23-13.08,54.32-26.23,4.98-3.87,6.33-9.93,10.98-13.52,2.5-4.99,6.64-9.93,3.93-15.99-28.12,4.71-55.62,11.86-83.44,13.17-6.92.35-15.42.61-22.35-.52-1.35-1.65,0-3.59,1.16-4.67,15.94-4.43,32.23-7.15,47.36-13.22,21.43-8.01,42.91-16.19,58.63-34.99,3.6-7.67,11.03-15.08,7.71-24.25-1.43-1.35-2.78-2.42-4.98-1.92-30.81,12.95-63.33,22.87-97.12,28.65-4.48-.3-9.19,3.09-12.44-.78-2.21-2.21,1.91-1.7,1.32-3.66,35.58-12.05,71.06-23.64,100-49.77,10.15-11.01,19-25.66,16.19-40.8-.75-2.16-2.73-4.36-5.46-4.15-24.79,11.84-49.59,23.42-75.98,31.74-3.32,0-6.34,3.54-9.66.76-.75-1.09-.75-3,.29-3.87,20.65-14.36,41.69-27.99,62.74-41.79,19.96-12.92,39.83-26,59.28-39.93,13.49-10.22,27.45-21.52,41.26-31.72,62.53-49.33,118.7-110.97,164.42-177.93,6.06-8.81,11.3-18.15,17.66-26.66,23.93-44.05,50.03-88.44,59.42-138.54,3.59-28.13-5.79-57-24.5-78.82ZM356.75,432.12c1.34-3.77,3.35-10.44,4.64-17.28,1.04-5.35,1.51-6.31,1.78-13.91,27.69-.04,41.29,1.05,41.29,9.76,0,11.9-25.36,18.26-47.7,21.43ZM443.88,392.55c-4.14,0-8-.55-11.32-3.02-4.36-4.14-4.65-11.02-3.01-16.28,1.68-3.01,6.09-.82,9.06-.82,15.46,2.77,31.14,5.24,45.75,9.67.8.53.24,1.61,0,2.49-14.09,1.64-26.48,6.85-40.49,7.96ZM490.34,1037.1c-4.93,3.34-10.49-1.69-15.38-2.73-18.04-5.72-35.69-13.66-52.39-23.37-26.39-15.9-52.96-38.37-71.34-63.66-9.13-12.44-16.88-26.23-22.85-40.78-9.87-24.32-15.3-51.33-15.3-77.9,0-8.26.52-16.43,1.57-24.51,2.14-15.51,6.2-31.17,12.37-45.46,8.57-19.54,19.56-38.88,32.22-55.62,11.88-13.52,23.47-27.83,39.17-38.34,1.35,0,2.7,0,3.27,1.38v2.77c-9.07,13.52-16.53,27.03-23.16,41.86-13,29.11-22.01,61.05-23.17,92.91-.25,6.61-.2,13.36.31,20,1.58,29.58,9.6,59.36,20.52,85.15l.11.07c6.51,15.3,13.03,27.59,22.29,41.72,3.37,3.87,5.54,8.81,9.39,11.85,13,17.45,28.77,32.44,45.58,45.88,9.51,7.57,20.85,15.59,30.7,22.2,2.25,1.91,6.64,3.52,6.07,6.57Z" fill="#e31b23" stroke-width="0"/>
    </g>
  </g>
  <g display="none">
    <g>
      <path d="M2488.38,1148.32c1.77.37,3.05.65,4.5,1.05.28.43,1.51,14.15,1.51,14.83-.4.28-.77.55-1.23.71-.77-.62-1.31-1.42-2.22-2.25-4.72-4.35-8.22-6.51-14.52-7.77-6.7-1.34-11.35-1.1-17.41,2.06-2.71,1.42-4.16,2.49-6.29,4.68-.96.99-1.46,1.6-2.28,2.71-1.07,1.46-1.59,2.36-2.41,3.98-2.89,5.7-3.34,9.67-3.26,16.06.02,1.53.05,2.4.24,3.91.28,2.23.58,3.48,1.23,5.64.64,2.11,1.06,3.29,2.03,5.27.84,1.69,1.38,2.62,2.46,4.16,1.42,2.03,2.28,3.19,4.16,4.81,2.79,2.41,4.8,3.38,8.32,4.47,2.27.71,3.63.9,6.01,1.08,2.4.18,3.78.14,6.16-.15,4.79-.58,7.64-1.32,11.77-3.82,2.26-1.36,3.41-2.36,5.3-4.19.49-.48.77-.96,1.23-1.26.43.15.74.52,1.05.8-.25.31-1.39,13.13-1.45,13.35-2.06.74-4.16,1.55-6.87,2.37-1.31.4-2.05.63-3.39.96-1.98.48-3.12.67-5.14.92-9.05,1.14-14.8.93-23.24-2.53-3.88-1.58-6.03-2.73-9.34-5.3-3.49-2.72-5.35-4.57-7.79-8.26-1.42-2.14-2.08-3.46-3.08-5.83-1.54-3.64-2.33-5.83-2.68-9.77-.05-.58-.06-.9-.09-1.48-.24-4.51-.55-7.14.24-11.58.33-1.88.61-2.93,1.17-4.75,1.5-4.89,2.68-7.7,5.73-11.8,1.21-1.64,2.01-2.48,3.42-3.95.52-.54.81-.84,1.36-1.36,1.23-1.16,1.97-1.77,3.36-2.74.76-.53,1.2-.82,2-1.29.71-.42,1.12-.64,1.85-1.02,7.03-3.65,11.81-4.51,19.72-4.9,7-.35,10.98.75,17.85,2.19h0Z" fill="#e31b23" stroke-width="0"/>
      <path d="M2325.72,1147.09c.37.4.55.96.86,1.42,0,.06-.12.16-.18.22-.18.06-.28.15-.43.28-2.44,1.66-4.16,4.44-4.84,7.28-.4,1.38-.83,2.8-.83,4.16v52.67c4.9.03,9.8-.21,14.15-1.94,4.13-1.45,7.95-3.42,11.37-6.54.15,0,.13-.19.28-.22l.12-.12.74.62c-.03.24.28.21.37.43.09.22-.12.37-.15.58-.55,1.39-1.08,2.78-1.51,4.19-1.39,3.82-2.65,7.68-4.04,11.53-.21.48-.21.49-.65.49h-39.61c-.06-.46-.31-.8-.4-1.29.25-.43.65-.65,1.04-1.1.06-.03.16-.26.26-.32,2.43-2.75,3.57-5.98,4.41-9.46.4-2.06.59-4.25.5-6.29v-42.32c.06-4.69-1.33-9.37-4.63-12.95-.06-.49.4-.89.59-1.33h22.59Z" fill="#e31b23" stroke-width="0"/>
      <path d="M2412.82,1147.15c.12,1.08.03,2.12.21,3.2.37,3.17.71,6.66,1.11,9.8-.15.31.25.65-.12.86-.4.16-.8.43-1.11.65-.16-.12-.49.12-.4-.25-1.23-1.35-2.64-2.11-4.59-2.99-.93-.42-1.49-.58-2.47-.89-1.32-.42-2.09-.61-3.45-.89-2.39-.51-3.78-.61-6.22-.83-2.17-.2-4.53-.15-5.58-.31-.18,0-.31.21-.49.18-.09,2.93-.03,23.12-.03,23.12.99-.06,1.86.04,3.05,0,2.37-.07,3.73-.04,6.04-.55,2.11-.47,3.34-.78,5.24-1.82,1.85-1.01,3.27-1.91,4.25-3.33.25.09,1.08.74,1.17.99-.03,2.68,0,13.06,0,17.72,0,.19-1.57.77-1.57.77-.03-.21-.29-.36-.49-.58-1.22-1.33-2.22-1.8-3.85-2.56-.48-.22-.76-.35-1.26-.52-.51-.18-.81-.24-1.33-.37-4.18-1.09-7.24-1.42-11-1.3v25c0,1.08.81,3.14,1.88,4.87.97,1.56,1.94,2.5,3.11,3.51-.22.49-.34,1.08-.62,1.6h-22.41c-.28-.43-.34-.99-.55-1.39.22-.46.83-.71,1.05-1.17.53-.52.93-1.14,1.42-1.69,2.25-3.52,3.17-7.61,3.3-12.02-.06-.22.03-41.55,0-44.75-.19-3.36-.9-6.5-2.47-9.34-.83-1.33-1.91-2.59-3.23-3.39.18-.49.52-.89.8-1.32h40.62Z" fill="#e31b23" stroke-width="0"/>
      <path d="M2405.17,1217c0-2.98,2.41-5.39,5.39-5.39s5.39,2.41,5.39,5.39-2.41,5.39-5.39,5.39-5.39-2.41-5.39-5.39h0Z" fill="#e31b23" stroke-width="0"/>
      <path d="M2350.87,1217c0-2.98,2.41-5.39,5.39-5.39s5.39,2.41,5.39,5.39-2.41,5.39-5.39,5.39-5.39-2.41-5.39-5.39h0Z" fill="#e31b23" stroke-width="0"/>
      <path d="M2502.49,1217c0-2.98,2.41-5.39,5.39-5.39s5.39,2.41,5.39,5.39-2.41,5.39-5.39,5.39-5.39-2.41-5.39-5.39h0Z" fill="#e31b23" stroke-width="0"/>
      <path d="M2465.24,1062c-1.68,0-3.18.61-4.32,1.76-1.21,1.23-1.88,2.82-1.88,4.47s.64,3.16,1.82,4.36c1.19,1.21,2.73,1.87,4.39,1.87s3.2-.66,4.43-1.85c1.17-1.14,1.82-2.67,1.82-4.38s-.66-3.22-1.8-4.38c-1.2-1.21-2.75-1.85-4.45-1.85h0ZM2470.65,1068.28c0,1.43-.55,2.77-1.57,3.76-1.07,1.04-2.41,1.59-3.88,1.59-1.38,0-2.75-.57-3.77-1.61-1.02-1.04-1.59-2.37-1.59-3.79s.59-2.8,1.64-3.88c.99-1,2.32-1.54,3.78-1.54s2.82.55,3.85,1.61c1.01,1,1.54,2.35,1.54,3.86h0ZM2465.41,1064.57h-2.66v7.06h1.33v-3.01h1.32l1.43,3.01h1.49l-1.57-3.22c1.02-.21,1.61-.9,1.61-1.9,0-1.28-.97-1.94-2.94-1.94h0ZM2465.17,1065.44c1.24,0,1.82.35,1.82,1.21s-.57,1.12-1.79,1.12h-1.12v-2.34h1.09Z" fill="#e31b23" fill-rule="evenodd" stroke-width="0"/>
    </g>
    <path d="M2404.12,1070.11c-2.78-4.17-4.7-8.86-5.97-13.77h.04c-.92-3.97-1.78-9.33-1.89-13.47-1.74-.52-3.68-.59-5.43-1.03-6.65-1.55-13.04-4.2-19.04-7.1-.25,6.73-1.77,14.78-3.74,21.43-.97,3.11-2.1,6.19-3.43,9.17,5.72,0,10.4-3.87,14.4-7.17-1.54,6.4-3.75,11.37-6.71,18.41-4.54,10.77-9.28,18.93-14.22,27.03h.01c-1.64,2.69-3.32,5.38-5.03,8.23-1.16,2-2.59,4.38-4.97,5.49-6.65,1.8-11.36-3.56-17.82-2.97-3.07.52-4.06,1.1-5.1,2.19-.58.91-.52,2-.13,2.97-3.62-.32-7.56-.32-10.39,1.81-1.23,1.16-1.81,2.9-1.29,4.65.38,1.09,1.1,2.04,2.39,2.51,1.54-2.97,4.71-4.33,7.87-5.1,1.35-.19,2.79-.45,4.08.07.31.2.06.58-.2.78-1.28.64-2.7,1.42-3.74,2.58-1.04,1.35-1.94,3.03-1.42,4.78.94,2.24,3.22,3.1,5.43,2.85.19-.26-.06-.52-.06-.78-.26-2.45,2.19-3.75,4.06-4.77,6.2-2.14,13.24-2.14,20.02-2.33,5.62-.33,11.3.07,16.92.46,3.29.39,6.59.96,9.1,3.02.59.59.71,1.63.33,2.33.83.26,1.61-.26,2.31-.65.14-.12.21-.16.52-.44,1.94-1.55,2.59-3.68,2.59-5.95-.07-2.2-2.14-3.69-3.89-4.33-.38-.16-.49-.19-.9-.32-4.26-1.29-8.97-.77-13.56-.72-1.29-.19-2.97.07-3.55-1.35-.26-.83.13-1.8.51-2.51,2.87-4.16,5.86-8.26,8.85-12.36h.06c5.05-6.89,10.36-14.15,15.05-21.16,3.67-5.48,6.06-12.27,6.26-18.72,2.59,2.58,5.68,4.71,9.04,6.06.83.19,1.87.46,2.65.19Z" fill="#e31b23" stroke-width="0"/>
    <path d="M2491.27,1055.11c.4-12.57-3.51-25.69-12.14-34.97-5.05-5.94-11.12-10.05-17.65-13.27h-.12c-9.29-4.49-19.92-7.58-29.36-11.45-1.87-.65-3.49-1.94-5.42-2.27-.25.2-.32.52-.2.83,5.17,4.71,11.3,9.23,16.64,13.32,7.96,6.15,15.79,12.75,22.54,22.97,4.51,6.81,7.17,10.77,9.88,18.46.75,2.14,1.52,4.64,2.08,6.69,3.11,11.6,3.07,21.82-.14,32.63,0,.98-.84,1.62-.32,2.59,1.36.32,1.87-1.29,2.58-2.06,3.55-5.88,6.97-12.01,8.97-18.66,1.58-4.77,2.47-9.78,2.68-14.81h-.02Z" fill="#e31b23" stroke-width="0"/>
    <path d="M2479.65,967.51c.25,1.3-1.03,2.2-1.41,3.29-2.07,2.91-4.27,5.81-6.79,8.4-5.29.9-10.71.7-16.2.39-2.19-.13-4.26-.59-6.33-.97-.18-.2-.06-.45,0-.64,10.98-1.36,20.79-5.5,30.16-10.79.19.07.52.07.58.33Z" fill="#e31b23" stroke-width="0"/>
    <path d="M2494.76,943.56c-.2-.26-.46-.71-.85-.65-1.93.84-3.49,2.52-5.23,3.62-8.02,5.18-17.11,9.46-26.16,12.25h.02c-3.75,1.14-7.58,2.05-11.5,2.73l-.05.71c.64,5.95-4.72,10.46-9.43,12.92v.38l.84.13c3.87-.33,7.61-1.29,11.23-2.13,9.74-3.24,19.24-7.43,27.44-14.2.16-.13.34-.26.52-.4h0s.07-.05.11-.09c.09-.07.19-.14.27-.21h0c4.09-3.22,8.35-7.5,11.45-11.77.31-1.1,1.55-2.06,1.36-3.29Z" fill="#e31b23" stroke-width="0"/>
    <polyline points="2441.59 1103.36 2441.56 1103.36 2441.59 1103.36 2441.59 1103.36" fill="#e31b23" fill-rule="evenodd" stroke-width="0"/>
    <path d="M2504.24,916.82c-3.02,2-4.9,4.59-8,6.53-3.81,2.97-7.69,5.55-11.7,8.07-8.78,5.04-17.81,9.49-27.37,12.65.32,4.78-1.35,9.44-5.17,12.6.06.39-.57.25-.57.58,0,.12,0,.32.12.45,8.08-1.48,15.63-4.78,23.06-8.6,10.01-5.99,19.82-13.03,26.67-22.85,1.81-2.65,3.42-5.26,4-8.53-.03-.71-.45-.96-1.03-.9Z" fill="#e31b23" stroke-width="0"/>
    <line x1="2324.89" y1="982.95" x2="2324.87" y2="982.78" fill="#e31b23" stroke-width="0"/>
    <path d="M2514.58,887.71c-7.85,8.47-16.53,16.01-25.77,22.67h0c-9.34,6.74-19.27,12.56-29.5,17.49,1.09,3.48.51,7.36-1.42,10.52-.46.78-1.29,1.36-1.49,2.2.19.39.59.06.9.06,16.52-7.19,32.94-16.63,45.85-30.28h0c1.94-2.04,3.79-4.17,5.54-6.4,3.42-4.85,6.98-9.81,7.43-15.76-.13-.76-1.04-.76-1.55-.51Z" fill="#e31b23" stroke-width="0"/>
    <path d="M2529.55,851.09c-18.52,24.38-43.65,44.07-69.16,59.28h0c-.36.22-.72.43-1.08.64.12.71.51,1.42.83,2.13,1.17,3.36.53,7.3-1.55,10.07-.13.25-.06.51.13.64,7.43-4.16,14.77-8.63,21.86-13.48h0c13.15-8.98,25.49-19.27,36.06-31.39,5.62-6.91,10.26-14.01,13.56-21.96.58-1.81,1.36-3.62,1.28-5.61-.19-.98-1.42-1.04-1.93-.33Z" fill="#e31b23" stroke-width="0"/>
    <path d="M2535.63,824.82c-.39-1.87-.33-3.94-1.29-5.56-.19-.39-.84-.39-1.1-.07-1.16,2.85-2.13,5.75-3.3,8.52-5.42,11.17-11.36,22.34-19.36,32.16-5.81,8.13-13.37,14.91-19.83,22.34-.05.25-.19.71,0,.97.33.39.91.25,1.24.25l3.16-2.52c13.63-11.62,26.66-23.82,36.8-38.87,3.24-4.91,4.39-11.11,3.69-17.24Z" fill="#e31b23" stroke-width="0"/>
    <path d="M2496.64,825.57c4.78,7.82,1.93,18.28-2.46,25.44-9.54,17.56-24.28,31.38-40.03,43.13-4.52,3.1-8.97,6.2-13.42,9.43-5.75,3.94-10.97,7.94-16.2,12.4-.58.13-.91.26-1.42.13-.33-.19-.45-.45-.64-.64.13-1.81,1.81-2.78,2.84-4.14,17.81-17.76,39.95-31,54.67-51.92,6.84-9.29,12.33-19.88,13.83-31.52,0-1.47-.21-2.9-.21-4.37.13-.39.71-.65,1.23-.46.72.71,1.29,1.61,1.81,2.51Z" fill="#e31b23" stroke-width="0"/>
    <path d="M2523.81,794.65c-.59-.52-1.09-1.15-1.94-1.21-.42.13-.5.65-.64,1.04.25,3.61-.65,6.65-.98,9.75-.58,4.18-2.13,8.2-3.16,12.26-5.3,17.37-13.63,33.31-25.25,48.12-14.08,18.94-33.27,32.53-52.58,45.78-2.98,2.04-5.98,4.07-8.94,6.13-5.3,4.12-10.85,8.19-14.14,14.2-2.2,4.06-3.93,8.71-5.55,13.03-1.58,5.16-3.94,10.56-7.44,14.88-2.95,3.64-6.7,6.53-11.47,7.92-.98-.07-2.46.7-3.09-.38-.21-.65.13-1.18.58-1.55,3.08-1.31,5.56-3.42,7.51-5.99,1.7-2.25,3.02-4.84,3.92-7.51,3.16-9.43,5.36-19.32,10.26-28.03,2.42-4.63,5.4-8.76,8.75-12.6h0c7.87-9.06,17.78-16.57,26.87-24.52,2.39-1.7,4.64-4.01,6.98-5.82,10.98-9.81,21.35-20.98,28.79-33.58,2.83-5.16,5.3-10.59,6-16.52,1.22-6.92.14-14.84-5.68-18.59-2.02-1.29-4-3.3-6.52-2.98-.52.13-.79.59-.59,1.1,3.16,4.51,4,11.18,2.39,16.47-3.75,13.42-11.62,25.24-20.8,36.08-11.88,14.79-27.54,25.83-41.43,38.82-1.81,1.93-4.07,3.66-5.49,5.88-1.04,1.09-2.08,2.36-3.01,3.55h-.03c-3.8,5.01-6.46,10.7-8.6,16.39-2.58,7.81-4.25,15.95-6.37,23.89-.32,1.92-1.43,3.49-2.08,5.23-.69,1.01-1.52,2.24-2.66,2.73-.45.22-.98.28-1.52.16-.13-.05-.25-.09-.37-.16-1.71-.87-2.69-2.8-3.05-4.54-3.49-15.57,3.93-29.46,13.48-40.81.81-.97,1.63-1.94,2.47-2.89,2.85-3.27,5.85-6.53,8.73-9.88,2.86-3.35,5.56-6.8,7.78-10.4,3.3-5.48,4.46-13.38.79-18.85-1.1-2.53-3.48-4.34-5.8-5.43-.21-.25-.21-.59,0-.83,2.06-.52,3.93.45,5.87.52,4.64.58,9.75-.13,13.87-1.81,2.71-1.35,5.74-3.37,6.53-6.46.18-1.09.77-2.71-.45-3.55-.97-.39-.72.9-1.17,1.29-2.13,2.26-5.43,3.17-8.57,3.17-7.69-.78-14.66-3.17-21.69-5.47-5.11-1.57-10.02-3.31-15.25-4.28-5.55-.57-13.12-1.93-16.78,3.3-.78,1.29-.45,2.71.18,4.01-3.1.32-6.32.18-9.55.52-.79-2.33-1.49-4.6-2.53-6.72-1.79.38-3.55,1.02-5.55.77,1.53,2,2.78,4.2,3.17,6.65-4.46,1.37-9.43,2.9-12.08,6.97-.52,1.36-1.68,2.65-1.36,4.14,4.33-1.88,8.84-3.35,13.89-3.62l.25.21c0,2.44-.64,5.02-1.42,7.36-2.06.58-4.13.26-6.13.45.12.32-.32.66-.18,1.03.31,2.33,3.16,2.14,4.38,3.17-1.21,2.45-2.77,5.02-4.72,7.03-1.87-1.74-4.39-3.23-6.97-3.09-4.98-.46-8.71,3.35-13.16,4.59-1.04.38-2.21-.34-3.11-.52-.38,1.22.45,2.51,1.47,3.28.85.32,1.56,1.18,2.46.97,1.22.66,2.96.58,4.52.52,3.42-.31,5.93-2.78,9.1-3.87,1.36-.2,2.78-1.1,4.14-.26-.25.9-1.36,1.42-2.05,2.12-4.34,3.17-9.71,4.66-12.54,9.63-.72,1.93-.77,4.26.06,6.21,1.41,2.25,3.88,3.54,6.52,3.16,0-.34-.2-.59-.32-.85-1.1-3.56,2.72-5.87,4.92-7.94,1.53-1.75,2.64-4.33,1.47-6.66,1.49-1.21,2.91-2.37,4.52-3.55.9,2.34,2.12,4.53,4.13,6.4,2.34,2,5.88,2.85,8.78,1.5,3.48-1.56,6.96-5.18,6.72-9.26-1.68,1.76-3.87,2.98-6.34,3.43-1.03-1.24-1.92-1.94-3.16-3.03-2.14-1.62-4.98-2.14-7.67-1.62,2.31-2.71,4.06-5.61,5.79-8.65,4.07-.38,8.13-1.23,12.21-2.19,5.1-1.04,11.24-.79,14.53,3.6.66.71,1.17,1.75,1.68,2.85,2.19,6.26-1.68,12.01-5.86,16.46-4.79,4.85-10.4,9.43-15.76,13.72l.29-.2c-11.38,9.07-23.15,17.76-31.35,30.14-2.06,2.69-3.93,5.93-5.29,9.29-1.44,2.71-2.67,5.75-3.6,8.8-1.6,5.22-2.42,10.91-2.42,16.56,0,2.55.17,5.09.51,7.56v.03c.79,5.68,2.45,11.18,5.13,16.04,1.35,2.86,3.53,6.3,5.47,8.82l-.48-.78c8.11,10.51,20.66,18.13,32.33,22.77,13.23,5.47,27.06,9.09,41.4,10.83l.24.28c1.73,4.36,2.93,9.52,3.29,14.37h-.01c.28,4.66-.2,9.35-1.66,13.78-.19.52-.63,1.11-.46,1.74,2.2-.77,4.39-2.31,6.01-3.94,1.23-.83,1.81-2.12,2.83-3.16.27-.05.4.07.52.26,1.86,13.44,4.97,26.55,9.77,39.03h-.01c.07.16.12.32.2.47,0,.03.02.05.02.07,1.1,2.8,2.45,5.98,3.7,8.66.72,2.26,2.91,4.01,2.33,6.46-.46.57-1.16,1.35-1.99,1.29-.98-.07-2.08-.13-2.91-.4-2.64-.7-5.23-1.92-7.81-2.65-3.87-.63-9.43-2.82-12.66.72-.5.97-.5,2.2-.05,3.23-1.16.25-2.45-.06-3.74.05-2.78-.05-5.16,1.64-6.41,4.01-.38,1.17-.38,2.91.33,3.94.46.79,1.29,1.24,2.14,1.3.25-.2.32-.52.38-.9,1.68-3.23,5.5-3.75,8.91-3.81.26.06.59.33.46.65-.97.83-2.19,1.29-2.97,2.33-.96,1.33-1.49,2.96-.64,4.63.71,1.36,2.05,2.4,3.75,2.4.6,0,.58.25.83,0-.19-1.24.57-2.53,1.54-3.48,4.15-3.24,9.36-3.89,14.65-4.41,9.81-.84,21.14-1.03,30.66.98,2.16.44,2.08.57,3.17,1.1,1.42.64,2.83,1.81,3.35,3.35.78.13,1.49-.33,2.07-.71,2.14-1.67,4.13-3.95,3.56-6.72-.21-.78-.57-1.24-1.36-2.06-3.31-2.6-8-2.53-12.01-2.2h-.58c-3.28.12-6.65.05-9.3-1.76-3.49-2.69-4-7.22-5.81-10.84-.5-1.72-1.12-4.07-1.57-5.79l.12.62c-3.26-12.16-5.46-24.55-6.41-37.31,0-.27,0-.65.31-.52,3.1,2.33,6.53,3.74,10.32,4.32,1.88.27,4.15.33,5.35-1.16-1.73-1.62-3.98-3.02-5.66-4.71-2.45-2.56-4.46-5.46-6.11-8.54h.04c-4.38-8.53-5.89-18.92-4.02-28.51-4-3.24-7.48-6.34-11.15-9.68-3.39-3.32-6.9-6.92-10.03-10.53h-.04c-6.12-7.07-11.23-14.87-13.12-23.93-.15-.8-.33-1.82-.44-2.54.06-1.36-.59-3.16.52-4.33.18-.07.57-.13.7.07.74,2.11,2.65,6.77,2.65,6.77,1.15,2.65,2.44,5.24,3.87,7.75,3.23,6,8.1,11.49,13.03,16.37h-.04c8.07,7.91,17.2,15.08,23.74,23.93,2.51,3.29,4.32,7.03,5.92,10.85,1.36,4.25,2.3,9.15,2.49,13.78,0,.48,0,.98,0,1.46,0,1.64-.07,3.24-.3,4.84.28.32.53.64.98.51,1.09-.71,1.23-1.93,1.68-3.03.35-1.26.62-2.52.85-3.78h.06c2.21-12.87-1.49-26.06-8.91-36.44-3.55-4.51-7.6-8.42-11.79-12.11h-.05c-8.71-7.6-18.33-14.69-24.92-24.05-.91-1.33-1.99-3-2.75-4.33-.37-.97-1.36-2.26-.25-3.23.25-.07.64-.11.9.07l3.35,3.62c1.39,1.33,4.81,4.26,4.81,4.26,9.43,7.75,20.43,13.05,33.35,12.66,7.67-1.03,14.58-4.97,20.15-10.46l.18-.77c-.12-.32-.38-.52-.64-.58-6.1.25-11.98-.21-17.67-1.15h.18c-4.57-.83-10.14-2.14-14.47-3.56-3.94-1.54-7.87-2.91-11.42-5.29-.07-.32-.07-.78.11-1.05,7.51-.25,15.7-2.83,19.9-9.74-.07-.45.33-1.16-.33-1.36-5.93.46-12.4.52-18.13-.7-.45,0-.57-.39-.57-.77.05-.27.37-.39.57-.58,2.92-.18,5.77-.56,8.5-1.21,4.64-1.13,8.96-3.07,12.73-6.15,1.17-.91,1.48-2.33,2.57-3.17.59-1.17,1.56-2.33.92-3.75-6.59,1.11-13.04,2.78-19.56,3.09-1.62.08-3.62.14-5.24-.12-.32-.39,0-.84.27-1.09,3.74-1.04,7.56-1.68,11.1-3.1,5.02-1.88,10.06-3.8,13.75-8.2.84-1.8,2.59-3.54,1.81-5.68-.34-.32-.65-.57-1.17-.45-7.22,3.04-14.85,5.36-22.77,6.72-1.05-.07-2.15.72-2.92-.18-.52-.52.45-.4.31-.86,8.34-2.82,16.66-5.54,23.45-11.67,2.38-2.58,4.46-6.02,3.79-9.56-.18-.51-.64-1.02-1.28-.97-5.81,2.78-11.63,5.49-17.81,7.44-.78,0-1.49.83-2.26.18-.18-.26-.18-.7.07-.91,4.84-3.37,9.77-6.56,14.71-9.8,4.68-3.03,9.34-6.1,13.9-9.36,3.16-2.4,6.44-5.04,9.67-7.44,14.66-11.57,27.83-26.02,38.55-41.72,1.42-2.06,2.65-4.25,4.14-6.25,5.61-10.33,11.73-20.73,13.93-32.48.84-6.6-1.36-13.36-5.75-18.48ZM2362.6,871.51c.31-.88.79-2.45,1.09-4.05.24-1.25.35-1.48.42-3.26,6.49-.01,9.68.25,9.68,2.29,0,2.79-5.95,4.28-11.18,5.02ZM2383.03,862.24c-.97,0-1.88-.13-2.65-.71-1.02-.97-1.09-2.58-.71-3.82.39-.71,1.43-.19,2.12-.19,3.62.65,7.3,1.23,10.73,2.27.19.12.06.38,0,.58-3.3.38-6.21,1.61-9.49,1.87ZM2390.31,1012.71c-4.23-1.34-8.37-3.2-12.28-5.48-6.19-3.73-12.42-9-16.73-14.93-2.14-2.92-3.96-6.15-5.36-9.56-2.31-5.7-3.59-12.03-3.59-18.26,0-1.94.12-3.85.37-5.75.5-3.64,1.45-7.31,2.9-10.66,2.01-4.58,4.59-9.11,7.55-13.04,2.78-3.17,5.5-6.52,9.18-8.99.32,0,.63,0,.77.32v.65c-2.13,3.17-3.88,6.34-5.43,9.82-3.05,6.82-5.16,14.31-5.43,21.78-.06,1.55-.05,3.13.07,4.69.37,6.93,2.25,13.92,4.81,19.96l.03.02c1.53,3.59,3.05,6.47,5.23,9.78.79.91,1.3,2.07,2.2,2.78,3.05,4.09,6.75,7.61,10.69,10.76,2.23,1.78,4.89,3.66,7.2,5.2.53.45,1.56.83,1.42,1.54-1.15.78-2.46-.4-3.61-.64Z" fill="#e31b23" stroke-width="0"/>
  </g>
</svg>