<?xml version="1.0" encoding="UTF-8"?>
<svg xmlns="http://www.w3.org/2000/svg" version="1.1" viewBox="0 0 496.375 1081.76">
  <!-- Generator: Adobe Illustrator 28.7.2, SVG Export Plug-In . SVG Version: 1.2.0 Build 154)  -->
  <g>
    <g id="b">
      <g>
        <path d="M205.951,1053.054c-9.245,0-18.712-.775-28.068-2.325-1.495-.221-2.99-.498-4.54-.83l-1.107-.166c-.941-.166-1.827-.332-2.768-.498-.664-.111-1.273-.332-1.882-.498-53.977-12.013-99.097-49.161-121.352-99.872-.277-.498-.554-1.052-.83-1.605-9.301-21.148-11.238-36.428-12.622-47.666l-.277-2.159c-.443-4.041-.664-7.695-.83-11.404-.72-17.826,1.273-35.542,5.924-52.704.941-3.654,2.104-7.363,3.322-10.906,11.626-33.992,34.379-64.385,63.887-85.367,2.048-1.439,4.484-2.879,6.92-4.207,5.315-22.532,23.695-26.241,36.317-28.788,12.179-2.436,25.964-5.259,41.576-20.871,10.795-10.795,30.947-50.6,30.947-97.934s-34.822-73.077-75.18-102.529c-49.105-35.819-104.743-76.454-104.743-164.921,0-53.922,25.245-85.367,47.5-113.103,17.716-22.089,33.051-41.133,33.051-68.925,0-22.144-7.861-37.313-24.027-46.337-12.179-6.809-24.857-7.474-24.968-7.529-6.311-.221-12.013-3.986-14.615-9.744-2.602-5.758-1.716-12.512,2.325-17.383,2.27-2.713,23.473-26.573,77.229-26.573,59.569,0,89.796,36.206,89.796,107.622,0,26.739-2.491,49.991-4.65,70.475-5.979,56.136-9.578,90.073,39.306,138.901,3.709,3.709,14.394,14.394,26.297,15.778,1.993-3.654,4.54-11.626,6.533-17.716,11.404-35.376,30.504-94.668,120.134-122.902,1.661-.498,3.322-.775,4.982-.775,5.647,0,11.072,2.934,14.172,7.972.83,1.384,8.47,14.283,15.944,40.414.996,3.488.83,7.086-.388,10.297,2.602,2.325,4.429,5.37,5.204,8.858,6.699,30.227,10.076,64.274,10.076,101.2,0,9.19-7.418,16.608-16.608,16.608-94.446,0-135.912,82.377-146.375,107.622-16.276,39.251-14.228,69.091-8.526,74.848,5.813,5.813,6.477,14.948,1.661,21.591-.111.166-7.197,9.91-15.612,23.695,11.128-1.938,25.3-6.976,30.504-12.179,3.654-3.654,8.415-5.647,13.397-5.647,6.754,0,12.899,3.709,16.11,9.633,3.322,6.145,2.879,13.73-1.107,19.764-21.148,31.999-48.939,37.092-67.375,40.469-11.921,2.177-17.882,6.828-17.882,13.951,0,12.622,2.99,13.674,9.578,15.944l1.661.554c36.981,13.231,68.759,38.974,89.464,72.468,4.152,6.865,8.138,14.781,12.954,25.743.055.166.111.332.221.443.498,1.052.941,2.159,1.384,3.211,6.643,17.494,10.408,35.929,11.183,54.808.941,22.144-2.325,43.846-9.577,64.606-.055.221-4.706,11.958-4.761,12.179-22.255,50.766-67.707,88.19-121.629,100.148-8.138,1.827-20.927,4.207-37.369,4.207h0l.111.055ZM167.309,121.657c.498,4.595.775,9.301.775,14.117,0,27.404-6.09,42.241-10.962,54.143-3.266,8.027-5.481,13.342-5.481,21.646,0,13.287,10.795,20.982,21.037,25.3.664-11.626,1.882-23.362,3.211-35.542,2.048-19.321,4.374-41.244,4.374-65.548,0-12.069-.886-21.757-2.491-29.508-2.159,6.754-5.979,11.847-10.463,15.39Z" fill="#fff"/>
        <path d="M137.303,44.816c47.5,0,73.187,24.802,73.187,91.014,0,98.266-34.49,147.205,39.473,221.168,5.536,5.536,20.927,20.816,40.58,20.816,30.172,0,5.259-102.529,129.102-141.559,0,0,7.086,11.57,14.172,36.317-7.252,3.598-28.4,14.615-27.348,19.653.388,1.716,3.156,2.381,6.865,2.381,8.636,0,22.587-3.322,25.023-3.875,5.315,23.971,9.688,56.247,9.688,97.657-144.493,0-199.079,178.374-166.637,210.815,0,0-16.165,21.978-29.12,47.777,0,0,5.204,3.1,18.934,3.1s39.694-7.252,50.268-17.826c.554-.554,1.163-.775,1.661-.775,1.439,0,2.381,1.716,1.107,3.598-34.933,52.815-87.969,15.114-87.969,63.61,0,25.964,14.228,29.286,22.255,32.11,33.715,12.069,62.281,35.376,80.938,65.603,4.263,7.031,8.138,15.169,11.903,23.695h0c.443.941.941,1.882,1.273,2.879,5.868,15.501,9.411,32.165,10.131,49.659.83,20.484-2.27,40.192-8.692,58.461l-4.318,11.017c-19.819,45.23-60.344,79.609-110.003,90.626-7.972,1.772-19.376,3.82-33.77,3.82-7.64,0-16.165-.554-25.411-2.104-1.384-.221-2.768-.498-4.152-.72-1.163-.221-2.27-.388-3.488-.609l.111-.111c-50.545-10.629-92.453-45.618-112.383-92.564v.221c-8.969-20.318-10.297-34.656-11.681-45.23-.332-3.266-.554-6.588-.72-9.91-.664-16.498,1.218-32.552,5.37-47.721.83-3.266,1.827-6.477,2.99-9.688,10.74-31.39,31.224-58.461,57.852-77.395,2.823-1.993,8.083-4.761,12.512-6.699,1.938-36.428,34.822-9.301,74.461-48.939,13.121-13.121,35.819-56.413,35.819-109.67,0-119.193-179.868-116.369-179.868-267.45,0-90.737,80.551-110.501,80.551-182.028s-65.049-70.419-65.049-70.419c0,0,16.941-20.539,64.44-20.539M144.057,72.441c4.429,0,4.927-2.159,6.976-2.159,2.547,0,12.013,9.688,12.013,23.861,0,17.217-14.172,17.992-14.172,17.992,1.716,7.142,2.657,15.058,2.657,23.861,0,43.016-16.387,49.438-16.387,75.789,0,40.58,53.922,46.891,53.922,46.891-.554-17.716,1.384-35.874,3.432-55.361,2.104-19.764,4.484-42.13,4.484-67.319,0-68.039-28.677-77.45-59.624-77.45-1.716,0-3.322,0-4.927.111,0,0,.775,13.84,11.626,13.84M137.358,11.821c-60.067,0-85.588,27.182-90.073,32.608-8.193,9.91-10.353,23.584-4.927,35.21,5.425,11.57,16.498,18.989,29.231,19.1,1.495.111,10.74,1.107,18.989,6.2,6.588,4.041,14.172,11.238,14.172,31.058,0,20.927-10.629,35.154-29.397,58.517-22.809,28.4-51.154,63.721-51.154,123.511,0,96.882,61.838,142.057,111.553,178.318,43.625,31.888,68.371,51.707,68.371,89.131,0,45.673-20.373,80.44-26.13,86.197-12.069,12.069-21.868,14.062-33.161,16.332-11.958,2.436-37.147,7.529-47.057,34.047-.83.498-1.605,1.052-2.325,1.55-32.497,23.086-57.354,56.358-70.198,93.727-1.384,3.875-2.602,7.917-3.709,12.013-5.093,18.712-7.252,38.089-6.422,57.631.166,3.931.443,7.972.83,11.958,0,.277.055.609.111.886l.277,2.104c1.439,11.515,3.654,28.899,13.896,52.261.332.775.72,1.605,1.163,2.325,24.359,54.918,73.298,95.221,131.87,108.508.941.277,1.938.554,2.879.775,1.218.277,2.325.443,3.488.664l.664.111c1.716.332,3.377.609,5.093.886,10.186,1.661,20.539,2.491,30.67,2.491,18.103,0,32.054-2.602,40.967-4.595,59.07-13.121,108.895-54.088,133.254-109.726.166-.388.332-.775.498-1.163l4.318-11.017c.166-.388.277-.775.443-1.163,7.972-22.753,11.515-46.559,10.519-70.807-.83-20.65-4.982-40.912-12.29-60.122-.554-1.495-1.163-2.879-1.716-4.041-.055-.111-.111-.277-.166-.388-5.149-11.626-9.411-20.096-13.84-27.515-.055-.111-.111-.166-.166-.277-21.923-35.431-55.14-62.946-93.893-77.893,19.875-3.654,53.091-9.799,78.17-47.666,7.363-11.128,8.083-25.245,1.882-36.76-6.09-11.349-17.882-18.38-30.725-18.38-2.879,0-5.758.332-8.526,1.052,0-7.861-2.713-15.667-8.083-21.868-3.1-9.633.166-48.441,26.629-89.021,19.875-30.449,55.915-66.766,114.874-66.766,18.325,0,33.217-14.892,33.217-33.217,0-38.199-3.543-73.464-10.463-104.799-.775-3.432-2.048-6.699-3.82-9.688.111-3.432-.277-6.976-1.273-10.463-7.917-27.681-16.165-41.908-17.771-44.51-6.145-10.076-16.996-15.889-28.345-15.889-3.322,0-6.699.498-9.965,1.55-97.823,30.836-119.359,97.712-130.929,133.642v.111c-1.55-1.329-3.322-2.934-5.204-4.816-43.237-43.237-40.358-70.696-34.49-125.393,2.214-20.927,4.761-44.621,4.761-72.246,0-102.64-57.852-124.231-106.404-124.231h0l-.166-.055ZM269.782,696.085h0Z" fill="#fff"/>
      </g>
      <g>
        <path d="M86.657,826.297c-2.166-.388-6.436-.356-10.724,4.226-6.775,7.231-9.961,17.017-9.454,29.087.119,3.068.564,4.796,1.452,7.281,1.578,4.389,5.372,7.275,8.145,7.776,3.293.595,7.019-1.308,10.487-5.353,7.607-8.853,10.881-25.1,7.156-35.473-1.553-4.32-4.057-6.993-7.062-7.544" fill="#0c133b"/>
        <path d="M247.082,945.669c3.813,8.077,10.43,12.747,15.37,14.425,6.417,2.185,23.39,5.691,37.471,7.219,15.457,1.678,27.541-6.787,34.433-23.885-5.177-.294-10.712-.883-16.434-1.671-1.077,3.443-2.454,6.88-4.22,9.917-1.328,2.303-4.295,3.105-6.637,1.791-2.335-1.308-3.149-4.233-1.822-6.53,1.171-2.028,2.141-4.32,2.936-6.674-3.018-.52-6.054-1.071-9.072-1.659-1.039,3.982-2.21,7.751-3.462,10.574-1.071,2.423-3.95,3.531-6.411,2.473-2.467-1.052-3.594-3.875-2.517-6.299,1.001-2.266,1.966-5.347,2.848-8.684-1.571-.338-3.136-.676-4.689-1.026-1.641-.364-3.306-.751-4.977-1.14-.87,2.768-1.909,5.66-3.174,8.584-1.039,2.436-3.907,3.581-6.374,2.548-2.479-1.027-3.643-3.844-2.591-6.28,1.039-2.411,1.909-4.815,2.654-7.131-8.208-2.041-16.641-4.32-25.193-6.774-2.053,8.821-.263,15.727,1.86,20.222" fill="#0c133b"/>
        <path d="M337.318,933.95c2.003-9.729-.163-16.497-2.555-20.635-3.024-5.228-8.001-8.972-13.661-10.268l-6.173-1.277c-5.616-1.114-14.099-2.811-26.802-5.935-17.017-4.182-31.611,3.481-39.674,20.573,8.289,2.366,16.453,4.57,24.405,6.549,1.289-6.092,1.553-10.311,1.565-10.387.156-2.636,2.467-4.651,5.146-4.501,2.68.163,4.733,2.417,4.577,5.059-.019.351-.331,5.196-1.809,12.096,1.571.363,3.149.732,4.695,1.077,1.603.356,3.168.694,4.708,1.026,1.39-6.743,2.285-12.471,2.304-12.578.401-2.611,2.886-4.414,5.547-4.02,2.655.395,4.483,2.836,4.082,5.453-.069.464-.964,6.198-2.398,13.066,3.274.626,6.361,1.177,9.297,1.666,1.083-5.804,1.34-10.424,1.346-10.518.132-2.636,2.417-4.677,5.102-4.545,2.686.119,4.752,2.366,4.62,5.008-.012.394-.281,5.247-1.427,11.495,6.743.895,12.408,1.39,17.104,1.596" fill="#0c133b"/>
        <path d="M365.779,873.308c-.726-17.48-4.32-34.177-10.318-49.679-7.362-19.001-32.017-32.481-64.485-39.711-60.015-13.348-138.869,8.702-189.042,50.224,1.928,7.569,1.365,16.603-1.233,24.855,36.143,19.114,88.727,39.806,138.33,54.656,11.676-26.37,34.027-31.391,51.457-27.109,12.483,3.061,20.51,4.67,26.382,5.835l6.449,1.34c8.289,1.903,15.551,7.312,19.909,14.863,3.08,5.334,5.923,13.773,3.988,25.375,6.098-.344,9.047-1.353,9.736-2.154,6.498-18.249,9.666-37.996,8.827-58.494" fill="#0c133b"/>
        <path d="M298.858,976.836c-13.554-1.471-31.685-4.99-39.592-7.689-8.834-3.011-16.685-10.28-21.018-19.439-1.791-3.788-3.406-8.834-3.656-14.95-.156-3.65.201-7.688,1.283-12.046-49.679-14.913-102.306-35.617-138.938-54.85-1.289,2.316-2.767,4.47-4.42,6.399-2.755,3.205-5.854,5.534-9.034,6.862,3.437,29.989,14.03,59.37,30.884,84.97,22.357,33.958,52.803,57.235,85.697,64.554,11.67,2.598,26.908,5.816,40.544,2.849,50.561-11.026,91.788-45.422,111.936-90.681-2.361.414-5.021.645-7.864.751-11.532,33.2-35.799,34.365-45.822,33.27" fill="#0c133b"/>
        <path d="M64.031,836.683c1.647-3.693,3.719-7.1,6.192-9.979,1.972-2.298,4.088-4.126,6.323-5.478,5.96-27.315,18.4-51.632,36.587-70.001-27.147,18.976-47.951,46.047-58.894,77.47,1.453,1.953,5.315,4.902,9.791,7.989" fill="#0c133b"/>
        <path d="M60.939,845.987c-3.944-2.761-7.312-5.353-9.716-7.6-4.188,15.163-6.117,31.209-5.44,47.744.144,3.331.388,6.643.726,9.911,2.417-9.76,7.187-19.965,14.018-30.371-1.315-6.098-1.108-13.028.413-19.684" fill="#0c133b"/>
        <path d="M73.76,882.01c-3.531-.87-6.586-3.018-8.934-6.248-11.933,18.106-16.954,34.296-12.578,48.827,18.357,60.948,73.031,105.982,138.512,111.967-62.582-18.694-108.899-82.835-117-154.546" fill="#0c133b"/>
        <path d="M238.073,585.735c0-119.323-183.007-116.481-183.007-267.671,0-90.824,81.959-110.589,81.959-182.181,0-68.379-66.188-70.496-66.188-70.496,0,0,17.254-20.572,65.562-20.572s74.459,24.811,74.459,91.068c0,98.356-35.067,147.34,40.181,221.354,5.61,5.51,21.299,20.816,41.276,20.816,30.69,0,5.372-102.619,131.35-141.667,0,0,7.206,11.607,14.418,36.356-7.394,3.618-28.912,14.619-27.797,19.69,1.265,5.728,28.956-.695,32.449-1.528,5.41,24.016,9.854,56.309,9.854,97.724-146.989,0-202.534,178.505-169.527,210.979,0,0-16.441,21.994-29.651,47.839,0,0,5.271,3.13,19.245,3.13s40.388-7.269,51.138-17.843c2.085-2.053,4.595.232,2.848,2.836-35.542,52.847-89.503,15.126-89.503,63.647,0,25.994,14.468,29.281,22.62,32.161,34.309,12.096,63.346,35.417,82.328,65.637-12.621-10.931-29.3-18.068-48.959-22.438-61.837-13.761-142.75,8.384-195.297,50.518-2.542-3.443-5.885-5.635-9.767-6.33-.414-.075-.814-.131-1.228-.169,6.624-29.043,20.135-54.474,38.904-71.196.369-40.839,34.503-11.207,75.874-51.901,13.354-13.129,36.456-56.465,36.456-109.763M150.83,135.884c0,43.061-16.704,49.472-16.704,75.83,0,40.601,54.857,46.955,54.857,46.955-.57-17.737,1.396-35.893,3.512-55.426,2.141-19.765,4.564-42.173,4.564-67.359,0-68.097-29.156-77.489-60.66-77.489-1.721,0-3.393.031-5.021.081,0,0,.808,13.83,11.808,13.83,4.52,0,5.034-2.172,7.119-2.172,2.579,0,12.214,9.691,12.214,23.903,0,17.254-14.387,17.993-14.387,17.993,1.734,7.144,2.698,15.076,2.698,23.853" fill="#0c133b"/>
      </g>
    </g>
  </g>
</svg>